<svg xmlns="http://www.w3.org/2000/svg" width="64" height="64" viewBox="0 0 64 64">
  <defs>
    <style>
      .cls-1 {
        fill: #7f7f7f;
        fill-rule: evenodd;
      }
    </style>
  </defs>
  <path id="_308.svg" data-name="308.svg" class="cls-1" d="M2327.71,89.706l-7,7a5.267,5.267,0,0,0-1.71,3.3V101a2,2,0,0,1,2,2v6h-2v-6h-13v6h-2v-6a2,2,0,0,1,2-2V94a8.826,8.826,0,0,1,2.29-5.707L2318.59,78H2320a4,4,0,0,1,4,4v1.414l-7.29,7.293-1.42-1.414,6.71-6.707V82a2,2,0,0,0-2-2h-0.59l-9.7,9.707A6.758,6.758,0,0,0,2308,94v7h9v-1a7.222,7.222,0,0,1,2.29-4.707l7-7a5.268,5.268,0,0,0,1.71-3.3V69a2,2,0,0,0-4,0v8h-2V69a4,4,0,0,1,8,0V85A7.221,7.221,0,0,1,2327.71,89.706ZM2298,85a20,20,0,1,1,20-20A20.021,20.021,0,0,1,2298,85Zm0-38a18,18,0,1,0,18,18A18.018,18.018,0,0,0,2298,47Zm0,33a15,15,0,1,1,15-15A15.017,15.017,0,0,1,2298,80Zm0-28a13,13,0,1,0,13,13A13.014,13.014,0,0,0,2298,52Zm4.87,13.847a4.377,4.377,0,0,1-2.15,1.306,11.12,11.12,0,0,1-2.25.131h-2.52v1.274h5.14a0.319,0.319,0,0,1,.31.327v1.4a0.319,0.319,0,0,1-.31.327h-5.14v2.058a0.32,0.32,0,0,1-.31.327h-1.71a0.32,0.32,0,0,1-.31-0.327V70.615h-2.31a0.319,0.319,0,0,1-.31-0.327v-1.4a0.319,0.319,0,0,1,.31-0.327h2.31V67.283h-2.31a0.32,0.32,0,0,1-.31-0.327v-1.6a0.32,0.32,0,0,1,.31-0.327h2.31v-6.7a0.319,0.319,0,0,1,.31-0.327h5.26a5.167,5.167,0,0,1,2.24.392,4.243,4.243,0,0,1,2.24,2.352,5.405,5.405,0,0,1,.29,2.613A4.5,4.5,0,0,1,2302.87,65.846Zm-2.22-5.162a2.513,2.513,0,0,0-1.41-.428,0.382,0.382,0,0,1-.05,0h-3.24v4.769h3.08a2.842,2.842,0,0,0,1.59-.392,2.2,2.2,0,0,0,.97-1.895A2.322,2.322,0,0,0,2300.65,60.685ZM2290,94v7a2,2,0,0,1,2,2v6h-2v-6h-13v6h-2v-6a2,2,0,0,1,2-2v-1a5.277,5.277,0,0,0-1.71-3.293l-7-7A7.221,7.221,0,0,1,2266,85V69a4,4,0,0,1,8,0v8h-2V69a2,2,0,0,0-4,0V85a5.277,5.277,0,0,0,1.71,3.293l7,7A7.222,7.222,0,0,1,2279,100v1h9V94a6.865,6.865,0,0,0-1.71-4.293L2276.59,80H2276a2,2,0,0,0-2,2v0.586l6.71,6.707-1.42,1.414L2272,83.414V82a4,4,0,0,1,4-4h1.41l10.3,10.293A8.826,8.826,0,0,1,2290,94Z" transform="translate(-2266 -45)"/>
</svg>

