<svg xmlns="http://www.w3.org/2000/svg" width="64" height="64" viewBox="0 0 64 64">
  <defs>
    <style>
      .cls-1 {
        fill: #7f7f7f;
        fill-rule: evenodd;
      }
    </style>
  </defs>
  <path id="_309.svg" data-name="309.svg" class="cls-1" d="M2448,72h16v2h-16V72Zm16,14h-16V84h16v2Zm-16-8h16v2h-16V78Zm21,14h-5.59l-7.7,7.707a1,1,0,0,1-.71.293,0.968,0.968,0,0,1-.38-0.076A0.993,0.993,0,0,1,2454,99V92h-12V90h13a1,1,0,0,1,1,1v5.586l6.29-6.293A1,1,0,0,1,2463,90h5V68h-20V66h21a1,1,0,0,1,1,1V91A1,1,0,0,1,2469,92Zm-24-6h-3V84h2V60h-36V84h5a1,1,0,0,1,.71.293l6.29,6.293V85a1,1,0,0,1,1-1h8v2h-7v7a0.993,0.993,0,0,1-.62.924A0.966,0.966,0,0,1,2421,94a1,1,0,0,1-.71-0.293L2412.59,86H2407a1,1,0,0,1-1-1V59a1,1,0,0,1,1-1h38a1,1,0,0,1,1,1V85A1,1,0,0,1,2445,86Zm-32-8a1,1,0,0,1-1-1V67a1,1,0,0,1,1-1h26a1,1,0,0,1,1,1V77a1,1,0,0,1-1,1h-26Zm25-10h-24v8h24V68Zm-15,5h-2V71h2v2Zm4,0h-2V71h2v2Zm4,0h-2V71h2v2Zm-8,23h0.54l5.62-6.557,2.85-5.7A4,4,0,0,1,2440,84v3a0.947,0.947,0,0,1-.07.372L2436.48,96H2448a4,4,0,0,1,4,4,3.962,3.962,0,0,1-.94,2.573,4,4,0,0,1-.74,7.2A3.959,3.959,0,0,1,2451,112a4,4,0,0,1-1.94,3.427A3.962,3.962,0,0,1,2450,118a4,4,0,0,1-4,4h-17a0.993,0.993,0,0,1-.45-0.106l-4-2,0.9-1.789,3.79,1.895H2446a2,2,0,0,0,0-4,1,1,0,0,1,0-2h1a2,2,0,0,0,0-4,1,1,0,0,1,0-2h2a2,2,0,0,0,0-4h-1a1,1,0,0,1,0-2,2,2,0,1,0,0-4h-13a1.011,1.011,0,0,1-.83-0.44,1.027,1.027,0,0,1-.1-0.932l3.93-9.821V84a2,2,0,1,0-4,0,1,1,0,0,1-.11.447l-3,6a0.856,0.856,0,0,1-.13.2l-6,7A1,1,0,0,1,2424,98h-1v24h-17V96h17Zm-2,2h-13v22h13V98Zm-2,20h-2v-2h2v2Z" transform="translate(-2406 -58)"/>
</svg>

