<svg xmlns="http://www.w3.org/2000/svg" width="52" height="64" viewBox="0 0 52 64">
  <defs>
    <style>
      .cls-1 {
        fill: #7f7f7f;
        fill-rule: evenodd;
      }
    </style>
  </defs>
  <path id="_310.svg" data-name="310.svg" class="cls-1" d="M2553,121h-2.36a23.958,23.958,0,0,1-5.64,11.823V149h-2V134.839a24.05,24.05,0,0,1-4,2.923V149h-2V138.8a23.681,23.681,0,0,1-20-.022V149h-2V137.731a24.111,24.111,0,0,1-4-2.893V149h-2V132.821a23.859,23.859,0,0,1,0-31.642V85h2V99.163a24.114,24.114,0,0,1,4-2.894V85h2V95.226a23.682,23.682,0,0,1,20-.022V85h2V96.238a24.052,24.052,0,0,1,4,2.922V85h2v16.177A23.958,23.958,0,0,1,2550.64,113H2553a2,2,0,0,1,2,2v4A2,2,0,0,1,2553,121Zm-9.95-19H2543v-0.053a21.9,21.9,0,0,0-32,0V102h-0.05a21.883,21.883,0,0,0,0,30H2511v0.053a21.9,21.9,0,0,0,32,0V132h0.05A21.883,21.883,0,0,0,2543.05,102Zm9.95,13h-2.1c0.05,0.661.1,1.325,0.1,2s-0.05,1.339-.1,2h2.1v-4Zm-6,3h-2v-2h2v2Zm-10-1a10,10,0,1,1-17.74-6.324l-2.97-2.969,1.42-1.414,2.97,2.969a9.96,9.96,0,0,1,12.64,0l5.97-5.969,1.42,1.414-5.97,5.969A9.959,9.959,0,0,1,2537,117Zm-10-8a7.959,7.959,0,0,0-4.9,1.688l2.88,2.879a3.882,3.882,0,0,1,4.04,0l2.88-2.879A7.959,7.959,0,0,0,2527,109Zm-2,8a2,2,0,1,0,2-2A2,2,0,0,0,2525,117Zm8.31-4.9-2.88,2.879a4,4,0,1,1-6.86,0l-2.88-2.879A7.916,7.916,0,0,0,2519,117a8,8,0,0,0,16,0A7.916,7.916,0,0,0,2533.31,112.1ZM2526,97h2v2h-2V97Zm2,40h-2v-2h2v2Zm-21-21h2v2h-2v-2Zm19-27h2v2h-2V89Zm0-4h2v2h-2V85Zm2,60h-2v-2h2v2Zm0,4h-2v-2h2v2Z" transform="translate(-2503 -85)"/>
</svg>

